<svg enable-background="new 0 0 32 32" viewBox="0 0 32 32" xmlns="http://www.w3.org/2000/svg"><path d="m16.032 29.247c-.092 0-.185-.035-.255-.105l-12.769-12.769c-1.507-1.507-2.337-3.506-2.337-5.629 0-2.139.83-4.147 2.337-5.655 1.506-1.506 3.508-2.335 5.639-2.337h.002c2.132 0 4.136.83 5.643 2.337l1.74 1.74 1.74-1.74c1.507-1.507 3.511-2.337 5.642-2.337h.008c2.128.002 4.129.832 5.635 2.337 1.507 1.508 2.337 3.511 2.337 5.642s-.83 4.134-2.337 5.642l-12.77 12.769c-.071.07-.163.105-.255.105zm-7.383-25.774s-.001 0-.002 0c-1.938.001-3.759.756-5.129 2.126-1.371 1.371-2.126 3.198-2.126 5.145 0 1.931.755 3.749 2.126 5.119l12.514 12.514 12.514-12.514c1.371-1.371 2.126-3.193 2.126-5.132s-.755-3.761-2.126-5.132c-1.37-1.369-3.19-2.124-5.125-2.126-.003 0-.006 0-.008 0-1.938 0-3.761.754-5.132 2.126l-1.995 1.995c-.141.141-.369.141-.51 0l-1.995-1.995c-1.369-1.371-3.193-2.126-5.132-2.126z"/></svg>